Coordinates
version=1
nRows=12
nColumns=38
inDegrees=yes

Units are S.I. units (second, meters, Newtons, ...)
Angles are in degrees.

endheader
time	pelvis_tilt	pelvis_list	pelvis_rotation	pelvis_tx	pelvis_ty	pelvis_tz	hip_flexion_r	hip_adduction_r	hip_rotation_r	knee_angle_r	ankle_angle_r	subtalar_angle_r	mtp_angle_r	hip_flexion_l	hip_adduction_l	hip_rotation_l	knee_angle_l	ankle_angle_l	subtalar_angle_l	mtp_angle_l	lumbar_extension	lumbar_bending	lumbar_rotation	arm_flex_r	arm_add_r	arm_rot_r	elbow_flex_r	pro_sup_r	wrist_flex_r	wrist_dev_r	arm_flex_l	arm_add_l	arm_rot_l	elbow_flex_l	pro_sup_l	wrist_flex_l	wrist_dev_l
      2.11000000	      7.55343883	      0.56149379	     -0.51389265	      0.90442931	      1.00290655	     -0.25635032	      8.20646440	     -1.88079908	     -8.39032789	    -62.88567131	      2.06959357	     -8.77313028	      0.00000000	      1.54555401	      4.03794427	      7.08958473	    -18.61848709	      7.38254743	     -8.12298571	      0.00000000	    -21.93985760	     -2.87929570	      1.29085215	     -6.92336506	     -8.17073120	     17.01129700	     63.86366829	     44.10885507	      0.00000000	      0.00000000	      5.50619674	     -8.74445487	     25.99859536	     47.63176932	     44.10885507	      0.00000000	      0.00000000
      2.12000000	      7.24937298	      0.30199614	     -0.38207230	      0.91746778	      1.00439121	     -0.25683433	      9.72418294	     -1.43261248	     -8.27767859	    -61.78822871	      2.84968552	     -8.74898298	      0.00000000	      0.60186661	      3.72595560	      7.23156595	    -17.74251884	      7.48581564	     -7.97149247	      0.00000000	    -21.57725537	     -2.45239600	      0.97801309	     -7.34816290	     -8.17607430	     17.07406218	     63.56621044	     44.11313819	      0.00000000	      0.00000000	      6.26470545	     -8.43672600	     26.08518652	     48.18307882	     44.11313819	      0.00000000	      0.00000000
      2.13000000	      6.99820479	      0.05721166	     -0.28882018	      0.93068950	      1.00582147	     -0.25710002	     11.08296999	     -1.04073722	     -8.24980947	    -60.40650988	      3.40451606	     -8.79037267	      0.00000000	     -0.51534145	      3.48612941	      7.76492577	    -16.65637260	      7.36420349	     -8.67132796	      0.00000000	    -21.26050559	     -2.10198656	      0.67561324	     -7.52632011	     -7.90356627	     16.95949362	     61.80432453	     44.14908748	      0.00000000	      0.00000000	      6.50607398	     -8.78690761	     26.95342096	     50.97500553	     44.14908748	      0.00000000	      0.00000000
      2.14000000	      6.67058226	     -0.11199406	     -0.20355222	      0.94393767	      1.00684986	     -0.25748164	     12.39100522	     -0.75244359	     -8.29353359	    -58.72992105	      3.96699871	     -8.86838201	      0.00000000	     -1.48798922	      3.24557801	      7.74508578	    -15.67010549	      7.52289464	     -8.45193894	      0.00000000	    -20.83016511	     -1.78493777	      0.35448192	     -8.02086521	     -7.89752691	     17.01028463	     61.56696029	     44.15250281	      0.00000000	      0.00000000	      7.17318947	     -8.48519635	     26.98677924	     51.45809348	     44.15250281	      0.00000000	      0.00000000
      2.15000000	      6.47315887	     -0.31593564	     -0.20316498	      0.95721354	      1.00777813	     -0.25767811	     13.50090898	     -0.40655376	     -8.24475226	    -56.79977995	      4.25395283	     -9.03422888	      0.00000000	     -2.66339119	      3.01443951	      7.92608776	    -14.57491892	      7.49933370	     -8.81490300	      0.00000000	    -20.57195135	     -1.48956561	      0.18111801	     -8.37893678	     -7.68074602	     16.75428994	     60.19145364	     44.20091418	      0.00000000	      0.00000000	      7.25001042	     -8.82700794	     27.47361790	     54.71768632	     44.20091418	      0.00000000	      0.00000000
      2.16000000	      6.25042913	     -0.48540537	     -0.20993472	      0.97042592	      1.00834181	     -0.25790233	     14.64459187	     -0.11341292	     -8.18538736	    -54.73713730	      4.26988957	     -9.28270653	      0.00000000	     -3.78593291	      2.80344912	      7.88085519	    -13.51614367	      7.56289956	     -8.90199319	      0.00000000	    -20.28689605	     -1.21193302	     -0.00163241	     -8.91099331	     -7.66671429	     16.67911314	     59.74010301	     44.21821619	      0.00000000	      0.00000000	      7.80259178	     -8.59165427	     27.53858719	     55.93898168	     44.21821619	      0.00000000	      0.00000000
      2.17000000	      6.05697310	     -0.58715064	     -0.23710973	      0.98368552	      1.00860781	     -0.25812633	     15.54297692	      0.16862569	     -8.08575128	    -52.30689042	      4.47505805	     -9.76736257	      0.00000000	     -4.97392118	      2.67413520	      7.89993452	    -12.41287054	      7.46544624	     -9.22747063	      0.00000000	    -20.03836677	     -0.99470747	     -0.17300125	     -9.42646258	     -7.60625790	     16.48960407	     59.17805603	     44.23537584	      0.00000000	      0.00000000	      8.22569992	     -8.53331948	     27.70477502	     57.53595652	     44.23537584	      0.00000000	      0.00000000
      2.18000000	      5.84632346	     -0.65428877	     -0.23542085	      0.99686275	      1.00855856	     -0.25834990	     16.82917288	      0.11478294	     -8.72633009	    -50.25692390	      3.30199717	    -10.49691687	      0.00000000	     -6.10576485	      2.59519004	      7.87503237	    -11.33215271	      7.50364426	     -9.42251761	      0.00000000	    -19.80354000	     -0.80803473	     -0.51965479	     -9.85295031	     -7.22335792	     15.63642042	     58.49205724	     44.27724639	      0.00000000	      0.00000000	      8.21416542	     -8.86333105	     27.83030983	     60.45659274	     44.27724639	      0.00000000	      0.00000000
      2.19000000	      5.77041776	     -0.61780154	     -0.24951302	      1.01017546	      1.00822417	     -0.25853581	     17.16637915	      0.41474765	     -7.98161968	    -47.12919236	      4.36013571	    -10.02354666	      0.00000000	     -7.37942946	      2.60209686	      7.53614348	    -10.24812420	      7.70803973	     -9.24807552	      0.00000000	    -19.71178433	     -0.73523891	     -0.74780236	    -10.32144723	     -7.24345899	     15.45477343	     58.23813353	     44.29112901	      0.00000000	      0.00000000	      8.74124477	     -8.71594140	     27.85114451	     61.59102139	     44.29112901	      0.00000000	      0.00000000
      2.20000000	      5.72717230	     -0.59922667	     -0.24238026	      1.02349915	      1.00763598	     -0.25873512	     17.65022438	      0.52813234	     -7.88183114	    -44.12308123	      4.27850790	    -10.15817992	      0.00000000	     -8.69823184	      2.62272817	      7.39432723	     -9.18804659	      7.57790248	     -9.53030065	      0.00000000	    -19.68215655	     -0.60965342	     -1.01520308	    -10.88441926	     -7.14828027	     15.25806195	     57.56794410	     44.30727787	      0.00000000	      0.00000000	      9.20540792	     -8.90289335	     28.22308297	     63.26138386	     44.30727787	      0.00000000	      0.00000000
      2.21000000	      5.68417580	     -0.48105776	     -0.22952468	      1.03688795	      1.00671505	     -0.25886227	     18.05370187	      0.56118505	     -7.48376016	    -40.98230536	      4.02276881	     -9.91042164	      0.00000000	    -10.05756015	      2.76888051	      7.43846602	     -8.04333886	      7.41532859	    -10.14519558	      0.00000000	    -19.65350315	     -0.62134527	     -1.38257877	    -11.19406715	     -7.00094747	     14.98915753	     56.75828411	     44.33860153	      0.00000000	      0.00000000	      9.40604591	     -9.37179295	     28.75803318	     65.80204013	     44.33860153	      0.00000000	      0.00000000
      2.22000000	      5.69293263	     -0.31977121	     -0.24890055	      1.05038664	      1.00565362	     -0.25901288	     18.39794679	      0.41627467	     -7.75333506	    -37.78837631	      3.48552767	     -9.86597694	      0.00000000	    -11.38602640	      2.94177999	      6.97768902	     -7.13005643	      7.41745631	     -9.98558653	      0.00000000	    -19.66582570	     -0.65094034	     -1.63363983	    -11.69957808	     -7.03441677	     14.98586406	     56.46960719	     44.34395958	      0.00000000	      0.00000000	      9.95986067	     -9.26208696	     28.80494036	     66.50637041	     44.34395958	      0.00000000	      0.00000000
